<svg width="36" height="43" viewBox="0 0 36 43" fill="none" xmlns="http://www.w3.org/2000/svg">
<g clip-path="url(#clip0_1203_38)">
<path fill-rule="evenodd" clip-rule="evenodd" d="M29.3339 9.29555C29.3339 8.58824 29.0532 7.91023 28.5526 7.41023C28.0526 6.90957 27.3746 6.62891 26.6673 6.62891H4.00062C3.29332 6.62891 2.61531 6.90957 2.11531 7.41023C1.61465 7.91023 1.33398 8.58824 1.33398 9.29555V38.6289C1.33398 39.3362 1.61465 40.0142 2.11531 40.5142C2.61523 41.0149 3.29324 41.2955 4.00054 41.2955H26.6672C27.3745 41.2955 28.0525 41.0149 28.5525 40.5142C29.0532 40.0142 29.3339 39.3362 29.3339 38.6289C29.3339 32.1716 29.3339 15.7529 29.3339 9.29555Z" stroke="#414141" stroke-width="2" stroke-linecap="round" stroke-linejoin="round"/>
<path fill-rule="evenodd" clip-rule="evenodd" d="M34.6679 3.96351C34.6679 3.25621 34.3872 2.5782 33.8866 2.0782C33.3866 1.57754 32.7085 1.29688 32.0012 1.29688H9.33461C8.6273 1.29688 7.9493 1.57754 7.4493 2.0782C6.94863 2.5782 6.66797 3.25621 6.66797 3.96351V6.63015H26.668C27.3753 6.63015 28.0533 6.91082 28.5533 7.41148C29.0539 7.91148 29.3346 8.58949 29.3346 9.29679V35.9634H32.0012C33.4739 35.9634 34.6679 34.7694 34.6679 33.2968V3.96351Z" stroke="#414141" stroke-width="2" stroke-linecap="round" stroke-linejoin="round"/>
<path fill-rule="evenodd" clip-rule="evenodd" d="M18.4453 21.2955L15.334 16.6289L12.2227 21.2955L15.334 25.9622L18.4453 21.2955Z" stroke="#414141" stroke-width="2" stroke-linecap="round" stroke-linejoin="round"/>
<path fill-rule="evenodd" clip-rule="evenodd" d="M15.3347 11.2891L24.0013 16.2924V26.3003L15.3347 31.3037L6.66797 26.3003V16.2924L15.3347 11.2891Z" stroke="#B8397E" stroke-width="2" stroke-linecap="round" stroke-linejoin="round"/>
<path d="M6.66797 35.9727H24.0013" stroke="#B8397E" stroke-width="2" stroke-linecap="round" stroke-linejoin="round"/>
</g>
<defs>
<clipPath id="clip0_1203_38">
<rect width="36" height="43" fill="white"/>
</clipPath>
</defs>
</svg>
