<svg width="42" height="43" viewBox="0 0 42 43" fill="none" xmlns="http://www.w3.org/2000/svg">
<g clip-path="url(#clip0_1203_16)">
<path fill-rule="evenodd" clip-rule="evenodd" d="M20.6602 41.4359V38.0461C20.6602 36.174 22.1779 34.6562 24.05 34.6562H37.6093C39.4814 34.6562 40.9991 36.174 40.9991 38.0461V41.4359H20.6602Z" stroke="#414141" stroke-width="2" stroke-linecap="round" stroke-linejoin="round"/>
<path d="M30.8305 7.5392V1.4375H1V41.4375H13.8814" stroke="#414141" stroke-width="2" stroke-linecap="round" stroke-linejoin="round"/>
<path d="M11.8477 11.7767L14.39 14.3191L19.4748 9.23438" stroke="#B8397E" stroke-width="2" stroke-linecap="round" stroke-linejoin="round"/>
<path d="M7.7793 24.4961H17.2708" stroke="#B8397E" stroke-width="2" stroke-linecap="round" stroke-linejoin="round"/>
<path d="M7.7793 31.2773H13.881" stroke="#B8397E" stroke-width="2" stroke-linecap="round" stroke-linejoin="round"/>
<path d="M27.441 34.6593C27.441 34.6593 25.7461 21.1062 25.7461 19.4051C25.7461 16.5968 28.0226 14.3203 30.8308 14.3203C33.6391 14.3203 35.9156 16.5968 35.9156 19.4051C35.9156 21.1062 34.2207 34.6593 34.2207 34.6593" stroke="#414141" stroke-width="2" stroke-linecap="round" stroke-linejoin="round"/>
</g>
<defs>
<clipPath id="clip0_1203_16">
<rect width="42" height="43" fill="white"/>
</clipPath>
</defs>
</svg>
