<svg width="50" height="43" viewBox="0 0 50 43" fill="none" xmlns="http://www.w3.org/2000/svg">
<g clip-path="url(#clip0_1203_58)">
<path fill-rule="evenodd" clip-rule="evenodd" d="M17.0004 41.4375H5.40039C3.19129 41.4375 1.40039 39.6466 1.40039 37.4375V5.4375C1.40039 3.2284 3.19129 1.4375 5.40039 1.4375H17.0004C19.2095 1.4375 21.0004 3.2284 21.0004 5.4375V37.4375C21.0004 39.6466 19.2095 41.4375 17.0004 41.4375Z" stroke="#414141" stroke-width="2" stroke-linecap="round" stroke-linejoin="round"/>
<path fill-rule="evenodd" clip-rule="evenodd" d="M44.6 17.4375H33C30.7909 17.4375 29 15.6466 29 13.4375V5.4375C29 3.2284 30.7909 1.4375 33 1.4375H44.6C46.8091 1.4375 48.6 3.2284 48.6 5.4375V13.4375C48.6 15.6466 46.8091 17.4375 44.6 17.4375Z" stroke="#B8397E" stroke-width="2" stroke-linecap="round" stroke-linejoin="round"/>
<path fill-rule="evenodd" clip-rule="evenodd" d="M44.6 41.4375H33C30.7909 41.4375 29 39.6466 29 37.4375V29.4375C29 27.2284 30.7909 25.4375 33 25.4375H44.6C46.8091 25.4375 48.6 27.2284 48.6 29.4375V37.4375C48.6 39.6466 46.8091 41.4375 44.6 41.4375Z" stroke="#414141" stroke-width="2" stroke-linecap="round" stroke-linejoin="round"/>
</g>
<defs>
<clipPath id="clip0_1203_58">
<rect width="50" height="43" fill="white"/>
</clipPath>
</defs>
</svg>
