<?xml version="1.0" encoding="UTF-8"?>
<svg width="142px" height="60px" viewBox="0 0 142 60" version="1.1" xmlns="http://www.w3.org/2000/svg" xmlns:xlink="http://www.w3.org/1999/xlink">
    <title>Group 27</title>
    <defs>
        <polygon id="path-1" points="0 0 76.861115 0 76.861115 59.7807661 0 59.7807661"></polygon>
        <polygon id="path-3" points="0 0 8.38780317 0 8.38780317 11.1337269 0 11.1337269"></polygon>
    </defs>
    <g id="Page-1" stroke="none" stroke-width="1" fill="none" fill-rule="evenodd">
        <g id="NFT-Toolkit---1" transform="translate(-769.000000, -60.000000)">
            <g id="Group-27" transform="translate(769.000000, 60.000000)">
                <g id="Group-3">
                    <mask id="mask-2" fill="white">
                        <use xlink:href="#path-1"></use>
                    </mask>
                    <g id="Clip-2"></g>
                    <path d="M72.5909674,59.7807661 L55.5107486,59.7807661 C48.4468174,59.7807661 42.7004915,54.0346259 42.7004915,46.9705091 L42.7004915,41.9708138 C41.3641324,42.4420768 39.9275045,42.7005472 38.4305297,42.7005472 L4.27009186,42.7005472 C1.91192018,42.7005472 -5.57048428e-05,40.7906139 -5.57048428e-05,38.4303997 C-5.57048428e-05,36.0701855 1.91192018,34.1604378 4.27009186,34.1604378 L38.4305297,34.1604378 C40.7844306,34.1604378 42.7004915,32.2443769 42.7004915,29.8902902 C42.7004915,27.5363893 40.7844306,25.6203283 38.4305297,25.6203283 L12.8102013,25.6203283 C5.74627019,25.6203283 -5.57048428e-05,19.8740024 -5.57048428e-05,12.8100713 C-5.57048428e-05,5.74614022 5.74627019,0 12.8102013,0 L55.5107486,0 C57.8689202,0 59.7807104,1.91197589 59.7807104,4.26996188 C59.7807104,6.62813356 57.8689202,8.54010945 55.5107486,8.54010945 L12.8102013,8.54010945 C10.4563003,8.54010945 8.54005374,10.4561704 8.54005374,12.8100713 C8.54005374,15.164158 10.4563003,17.0802189 12.8102013,17.0802189 L38.4305297,17.0802189 C45.4924183,17.0802189 51.236516,22.8222741 51.240601,29.8841627 L51.240601,29.8902902 L51.240601,46.9705091 C51.240601,49.3266383 53.1568476,51.2406567 55.5107486,51.2406567 L72.5909674,51.2406567 C74.9491391,51.2406567 76.861115,53.1505901 76.861115,55.5106186 C76.861115,57.8708328 74.9491391,59.7807661 72.5909674,59.7807661" id="Fill-1" fill="#FFFFFF" mask="url(#mask-2)"></path>
                </g>
                <path d="M62.8466864,28.0935305 C60.9458515,28.0935305 59.303487,27.1820136 58.5562994,25.9555787 C58.3056276,25.5442912 58.4383908,25.2941765 58.9597882,25.0860261 L59.1228177,25.0212228 C59.5157225,24.8646922 59.6924925,24.9785157 60.1357174,25.4486646 C60.8227438,26.1769126 61.7374173,26.6050971 62.8329459,26.6050971 C64.2755156,26.6050971 65.1168444,26.0118405 65.1168444,24.997641 C65.1168444,22.4909231 58.8247968,24.230771 58.8247968,20.116597 C58.8247968,18.3505678 60.3433108,17.1090926 62.5042873,17.1090926 C64.1111863,17.1090926 65.7173426,17.885061 66.3676038,18.973905 C66.6184613,19.3955907 66.4959107,19.68637 66.0088647,19.82916 L65.7580072,19.9025048 C65.3782858,20.0131717 65.2046724,19.8848649 64.7685035,19.4899176 C64.1392244,18.9196856 63.5106881,18.6276066 62.5900728,18.6276066 C61.2915929,18.6276066 60.4990987,19.1920823 60.4990987,20.116597 C60.4990987,22.7560782 66.8214126,20.8244199 66.8214126,24.997641 C66.8214126,26.853355 65.2295539,28.0935305 62.8474291,28.0935305 L62.8466864,28.0935305 Z" id="Fill-4" fill="#FFFFFF"></path>
                <path d="M73.5261032,27.4701005 L70.3724664,17.9733532 C70.1930968,17.4567836 70.4471109,17.1069572 70.9854053,17.1069572 L71.3140639,17.1069572 C71.7476333,17.1069572 72.0161306,17.3047094 72.1509363,17.7297374 L74.631473,25.601203 L76.9187138,17.7447777 C77.0379222,17.3047094 77.3220169,17.1069572 77.7548435,17.1069572 L77.9048752,17.1069572 C78.3382589,17.1069572 78.6225393,17.3197497 78.7417476,17.7447777 L81.0432861,25.601203 L83.5394201,17.7297374 C83.6736687,17.3047094 83.9429088,17.1069572 84.3757354,17.1069572 L84.7051367,17.1069572 C85.2426885,17.1069572 85.4967026,17.4567836 85.31789,17.9733532 L82.1493986,27.4701005 C82.0144072,27.8951284 81.7308695,28.0928806 81.2974858,28.0928806 L80.9536013,28.0928806 C80.5202176,28.0928806 80.2366799,27.8800881 80.1167288,27.4550602 L77.8302307,19.6294582 L75.5585872,27.4550602 C75.4388218,27.8951284 75.1545414,28.0928806 74.7217148,28.0928806 L74.3772732,28.0928806 C73.9444466,28.0928806 73.6603519,27.8800881 73.5261032,27.4701005" id="Fill-6" fill="#FFFFFF"></path>
                <path d="M89.6242272,27.3351648 L89.6242272,17.8731402 C89.6242272,17.3885081 89.8932816,17.1155543 90.3719718,17.1155543 L90.6103886,17.1155543 C91.0890788,17.1155543 91.3581332,17.3885081 91.3581332,17.8731402 L91.3581332,27.3351648 C91.3581332,27.820354 91.0890788,28.0934934 90.6103886,28.0934934 L90.3719718,28.0934934 C89.8932816,28.0934934 89.6242272,27.820354 89.6242272,27.3351648" id="Fill-8" fill="#FFFFFF"></path>
                <path d="M104.330621,27.1694057 C104.733924,27.7758458 104.599676,28.0939205 103.851931,28.0939205 L103.523272,28.0939205 C103.119784,28.0939205 102.850729,27.9277343 102.626053,27.593691 L100.564231,24.4125731 C100.367036,24.4218572 100.162785,24.4270563 99.9518493,24.4270563 L98.3822725,24.4270563 L98.3822725,27.3363346 C98.3822725,27.8209667 98.1137752,28.0939205 97.6358276,28.0939205 L97.3810708,28.0939205 C96.9023805,28.0939205 96.6338832,27.8209667 96.6338832,27.3363346 L96.6338832,17.8808089 C96.6338832,17.3956197 96.9023805,17.123223 97.3810708,17.123223 L99.9813729,17.123223 C103.343903,17.123223 104.764191,18.1080847 104.764191,20.7444092 C104.764191,22.5804408 103.965198,23.6759694 102.313735,24.1494605 L104.330621,27.1694057 Z M103.015059,20.8203535 C103.015059,19.0628657 101.984519,18.6378377 99.936252,18.6378377 L98.3672322,18.6378377 L98.3672322,22.9570055 L99.936252,22.9570055 C101.984519,22.9570055 103.015059,22.578584 103.015059,20.8203535 L103.015059,20.8203535 Z" id="Fill-10" fill="#FFFFFF"></path>
                <path d="M109.663599,27.3458416 L109.663599,18.0199225 C109.663599,17.5419749 109.933396,17.2729205 110.411343,17.2729205 L110.64976,17.2729205 C111.12845,17.2729205 111.397505,17.5419749 111.397505,18.0199225 L111.397505,26.5240094 L115.223685,26.5240094 C115.702189,26.5240094 115.971429,26.7932495 115.971429,27.2711971 L115.971429,27.3458416 C115.971429,27.8237891 115.702189,28.0930292 115.223685,28.0930292 L110.411343,28.0930292 C109.933396,28.0930292 109.663599,27.8237891 109.663599,27.3458416" id="Fill-12" fill="#FFFFFF"></path>
                <path d="M120.481516,27.3456373 L120.481516,18.0204609 C120.481516,17.5417707 120.750571,17.2732733 121.228704,17.2732733 L123.336575,17.2732733 C127.730388,17.2732733 129.494374,19.0361459 129.494374,22.6827706 C129.494374,26.2998717 127.730388,28.0928249 123.336575,28.0928249 L121.228704,28.0928249 C120.750571,28.0928249 120.481516,27.8243276 120.481516,27.3456373 L120.481516,27.3456373 Z M123.396179,26.5238052 C126.549073,26.5238052 127.745428,25.3432339 127.745428,22.6677303 C127.745428,20.007824 126.549073,18.8272527 123.380953,18.8272527 L122.215422,18.8272527 L122.215422,26.5238052 L123.396179,26.5238052 Z" id="Fill-14" fill="#FFFFFF"></path>
                <g id="Group-18" transform="translate(133.612197, 17.108833)">
                    <mask id="mask-4" fill="white">
                        <use xlink:href="#path-3"></use>
                    </mask>
                    <g id="Clip-17"></g>
                    <path d="M4.41311409,11.1337269 C2.51227917,11.1337269 0.869914723,10.2097693 0.122727098,8.96699423 C-0.127944695,8.55050769 0.00481851398,8.2964936 0.526215843,8.08500088 L0.689245349,8.01945485 C1.08215017,7.86088173 1.25947726,7.97619076 1.70214507,8.45283853 C2.38972852,9.19148474 3.30384499,9.6250541 4.39993061,9.6250541 C5.84194331,9.6250541 6.68271507,9.02399885 6.68271507,7.99587313 C6.68271507,5.45517525 0.39122444,7.21860489 0.39122444,3.04872605 C0.39122444,1.25855808 1.90973845,0 4.07127204,0 C5.67761402,0 7.28377032,0.786366697 7.93403152,1.89043668 C8.18544604,2.31806419 8.06308107,2.61200008 7.57584938,2.75738972 L7.32443486,2.83203421 C6.94527056,2.94400094 6.77035735,2.81365161 6.3356739,2.41350516 C5.70639486,1.83528889 5.07711582,1.53949617 4.15650045,1.53949617 C2.85802056,1.53949617 2.06552633,2.11177059 2.06552633,3.04872605 C2.06552633,5.7236726 8.38784031,3.7663901 8.38784031,7.99587313 C8.38784031,9.87721136 6.79598158,11.1337269 4.41385682,11.1337269 L4.41311409,11.1337269 Z" id="Fill-16" fill="#FFFFFF" mask="url(#mask-4)"></path>
                </g>
                <path d="M59.785074,41.9323589 L59.785074,32.3773072 C59.785074,31.887476 60.0541284,31.6111799 60.5322616,31.6111799 L60.7712354,31.6111799 C61.2499257,31.6111799 61.518423,31.887476 61.518423,32.3773072 L61.518423,41.0902874 L65.3444173,41.0902874 C65.8231076,41.0902874 66.0916049,41.3660263 66.0916049,41.8564146 L66.0916049,41.9323589 C66.0916049,42.4221901 65.8231076,42.6977434 65.3444173,42.6977434 L60.5322616,42.6977434 C60.0541284,42.6977434 59.785074,42.4221901 59.785074,41.9323589" id="Fill-19" fill="#FFFFFF"></path>
                <path d="M79.7346308,41.8286365 C79.9435239,42.3492911 79.7195905,42.7165717 79.181296,42.7165717 L78.882718,42.7165717 C78.4643747,42.7165717 78.1800943,42.5175197 78.015765,42.1194158 L77.402269,40.5431544 L72.0052125,40.5431544 L71.3948731,42.1194158 C71.2455841,42.5175197 70.9464491,42.7165717 70.52792,42.7165717 L70.2588656,42.7165717 C69.7060879,42.7165717 69.4671141,42.3492911 69.6760073,41.8286365 L73.5918721,32.2316205 C73.7562013,31.819219 74.040296,31.6344646 74.4588251,31.6344646 L74.9375154,31.6344646 C75.3558588,31.6344646 75.6393964,31.819219 75.8044684,32.2316205 L79.7346308,41.8286365 Z M76.8481915,39.11971 L74.6977989,33.5943466 L72.5572474,39.11971 L76.8481915,39.11971 Z" id="Fill-21" fill="#FFFFFF"></path>
                <path d="M84.0643825,41.9601927 L84.0643825,32.3901008 C84.0643825,31.8989697 84.3334369,31.6226737 84.8121272,31.6226737 L87.502114,31.6226737 C91.0891345,31.6226737 92.1349001,32.6658397 92.1349001,34.4914731 C92.1349001,35.9641235 91.4918806,36.7917117 90.1324967,37.0524104 C91.7165568,37.2670597 92.493825,38.0497128 92.493825,39.6755515 C92.493825,41.5470485 91.2974707,42.7276198 87.6658863,42.7276198 L84.8121272,42.7276198 C84.3334369,42.7276198 84.0643825,42.4513238 84.0643825,41.9601927 L84.0643825,41.9601927 Z M87.5165973,36.3778248 C89.4751796,36.3778248 90.3113093,35.9175171 90.3113093,34.6910821 C90.3113093,33.5248084 89.6538064,33.1725681 87.4720334,33.1725681 L85.7826912,33.1725681 L85.7826912,36.3778248 L87.5165973,36.3778248 Z M87.651403,41.1940655 C89.8188784,41.1940655 90.6702341,40.6878941 90.6702341,39.5065801 C90.6702341,38.2029011 89.9380868,37.7890141 87.6814836,37.7890141 L85.7826912,37.7890141 L85.7826912,41.1940655 L87.651403,41.1940655 Z" id="Fill-23" fill="#FFFFFF"></path>
                <path d="M101.072241,42.6984119 C99.1714059,42.6984119 97.5290414,41.7783536 96.7818538,40.5389208 C96.531182,40.1229913 96.6641309,39.870277 97.1853426,39.6600841 L97.3483721,39.594538 C97.7412769,39.4367077 97.918604,39.5514596 98.3612718,40.0268076 C99.0488552,40.7621116 99.9637144,41.1943811 101.059057,41.1943811 C102.50107,41.1943811 103.342399,40.5957398 103.342399,39.5709563 C103.342399,37.0382428 97.0503512,38.7964733 97.0503512,34.6395923 C97.0503512,32.8559232 98.5688652,31.6012645 100.730399,31.6012645 C102.336741,31.6012645 103.942897,32.3850316 104.593158,33.4857593 C104.844573,33.912087 104.722208,34.2049088 104.234976,34.3495557 L103.983562,34.4234575 C103.604397,34.5354242 103.429484,34.4058176 102.994801,34.0077137 C102.365522,33.4307972 101.736243,33.1355615 100.815627,33.1355615 C99.5171473,33.1355615 98.7246531,33.7065362 98.7246531,34.6395923 C98.7246531,37.3067402 105.046967,35.3553995 105.046967,39.5709563 C105.046967,41.4463527 103.455108,42.6984119 101.072984,42.6984119 L101.072241,42.6984119 Z" id="Fill-25" fill="#FFFFFF"></path>
            </g>
        </g>
    </g>
</svg>