<?xml version="1.0" encoding="UTF-8"?>
<svg width="36px" height="43px" viewBox="0 0 36 43" version="1.1" xmlns="http://www.w3.org/2000/svg" xmlns:xlink="http://www.w3.org/1999/xlink">
    <title>Group 11</title>
    <g id="Page-1" stroke="none" stroke-width="1" fill="none" fill-rule="evenodd" stroke-linecap="round" stroke-linejoin="round">
        <g id="NFT-Toolkit---1" transform="translate(-562.000000, -658.000000)" stroke-width="2">
            <g id="Group-11" transform="translate(563.333402, 659.295413)">
                <path d="M27.999917,8 C27.999917,7.2926971 27.7192531,6.6146888 27.2185892,6.1146888 C26.7185892,5.6140249 26.0405809,5.333361 25.333278,5.333361 L2.666639,5.333361 C1.9593361,5.333361 1.2813278,5.6140249 0.781327801,6.1146888 C0.2806639,6.6146888 0,7.2926971 0,8 L0,37.333361 C0,38.0406639 0.2806639,38.7186722 0.781327801,39.2186722 C1.28124481,39.7193361 1.95925311,40 2.66655602,40 L25.333195,40 C26.0404979,40 26.7185062,39.7193361 27.2185062,39.2186722 C27.7191701,38.7186722 27.999917,38.0406639 27.999917,37.333361 C27.999917,30.8760166 27.999917,14.4573444 27.999917,8 Z" id="Stroke-1" stroke="#414141"></path>
                <path d="M33.333195,2.666639 C33.333195,1.9593361 33.0525311,1.2813278 32.5518672,0.781327801 C32.0518672,0.2806639 31.3738589,0 30.666556,0 L7.99991701,0 C7.29261411,0 6.61460581,0.2806639 6.11460581,0.781327801 C5.61394191,1.2813278 5.33327801,1.9593361 5.33327801,2.666639 L5.33327801,5.33327801 L25.333278,5.33327801 C26.0405809,5.33327801 26.7185892,5.61394191 27.2185892,6.11460581 C27.7192531,6.61460581 27.999917,7.29261411 27.999917,7.99991701 L27.999917,34.666556 L30.666556,34.666556 C32.1392531,34.666556 33.333195,33.4725311 33.333195,31.999917 L33.333195,2.666639 Z" id="Stroke-3" stroke="#414141"></path>
                <polygon id="Stroke-5" stroke="#414141" points="17.1112033 20 13.999917 15.333361 10.8885477 20 13.999917 24.666639"></polygon>
                <polygon id="Stroke-7" stroke="#3FB549" points="13.999917 9.9926971 22.666556 14.9960166 22.666556 25.0039834 13.999917 30.0073029 5.33319502 25.0039834 5.33319502 14.9960166"></polygon>
                <line x1="5.33319502" y1="34.6751452" x2="22.666556" y2="34.6751452" id="Stroke-9" stroke="#3FB549"></line>
            </g>
        </g>
    </g>
</svg>