<?xml version="1.0" encoding="UTF-8"?>
<svg width="42px" height="43px" viewBox="0 0 42 43" version="1.1" xmlns="http://www.w3.org/2000/svg" xmlns:xlink="http://www.w3.org/1999/xlink">
    <title>Group 15</title>
    <g id="Page-1" stroke="none" stroke-width="1" fill="none" fill-rule="evenodd" stroke-linecap="round" stroke-linejoin="round">
        <g id="NFT-Toolkit---1" transform="translate(-819.000000, -668.000000)" stroke-width="2">
            <g id="Group-15" transform="translate(820.000000, 669.438564)">
                <path d="M17.8439127,17.1784348 L6.82388052,36.2656123 C5.86562227,37.9253236 7.06350733,40.000056 8.98002384,40.000056 L31.0199637,40.000056 C32.9364802,40.000056 34.134303,37.9253236 33.1760448,36.2656123 L22.1561371,17.1784348 C21.1978788,15.5186613 18.802171,15.5186613 17.8439127,17.1784348 Z" id="Stroke-1" stroke="#414141"></path>
                <line x1="20.0188796" y1="31.2240946" x2="20.0188796" y2="23.7552072" id="Stroke-3" stroke="#3FB549"></line>
                <line x1="19.7499672" y1="35.0396587" x2="20.2499672" y2="35.0396587" id="Stroke-5" stroke="#3FB549" transform="translate(19.999967, 35.039659) rotate(90.000000) translate(-19.999967, -35.039659) "></line>
                <line x1="20.0188796" y1="0" x2="20.0188796" y2="8.38177218" id="Stroke-7" stroke="#3FB549"></line>
                <line x1="34.1421392" y1="5.85787952" x2="28.215328" y2="11.7846906" id="Stroke-11" stroke="#3FB549"></line>
                <line x1="5.85785462" y1="5.85787952" x2="11.7846658" y2="11.7846906" id="Stroke-13" stroke="#3FB549"></line>
                <path d="M20,0 C8.9542624,0 0,8.9542624 0,20 L0.082966891,20 L8.38170994,20 C8.38170994,13.5834166 13.5834166,8.38177218 20,8.38177218 C26.4165834,8.38177218 31.6182901,13.5834166 31.6182901,20 L40,20 C40,8.9542624 31.0457376,0 20,0 Z" id="Stroke-9" stroke="#414141"></path>
            </g>
        </g>
    </g>
</svg>