<svg width="38" height="43" viewBox="0 0 38 43" fill="none" xmlns="http://www.w3.org/2000/svg">
<g clip-path="url(#clip0_1203_2)">
<path d="M13.0273 16.7188L19.0008 27.4018" stroke="#414141" stroke-width="2" stroke-linecap="round" stroke-linejoin="round"/>
<path d="M25.0132 16.7188L19 27.4018" stroke="#414141" stroke-width="2" stroke-linecap="round" stroke-linejoin="round"/>
<path d="M1 16.8594L19 27.4045" stroke="#414141" stroke-width="2" stroke-linecap="round" stroke-linejoin="round"/>
<path d="M37 16.7188L19 27.4018" stroke="#414141" stroke-width="2" stroke-linecap="round" stroke-linejoin="round"/>
<path fill-rule="evenodd" clip-rule="evenodd" d="M28.76 41.4372H9.23828V27.4023H28.76V41.4372Z" stroke="#414141" stroke-width="2" stroke-linecap="round" stroke-linejoin="round"/>
<path fill-rule="evenodd" clip-rule="evenodd" d="M1 16.8584C1.5743 14.7208 4.05724 13.1128 7.03325 13.1128C9.94489 13.1128 12.3846 14.6519 13.0266 16.7205C13.6685 14.6519 16.1083 13.1128 19.0199 13.1128C21.9317 13.1128 24.3714 14.6519 25.0133 16.7205C25.6552 14.6519 28.0949 13.1128 31.0066 13.1128C33.9183 13.1128 36.3581 14.6519 37 16.7205C37 8.07457 28.9411 1 19 1C9.05887 1 1 8.21231 1 16.8584Z" stroke="#414141" stroke-width="2" stroke-linecap="round" stroke-linejoin="round"/>
<path d="M13.0273 16.7206C13.0898 8.35093 15.7106 1 19.0207 1C22.3307 1 24.9508 8.35093 25.014 16.7206" stroke="#414141" stroke-width="2" stroke-linecap="round" stroke-linejoin="round"/>
<path d="M21.5023 27.4023V34.0842L19.0191 32.4062L16.4961 34.0842V27.4023" stroke="#B8397E" stroke-width="2" stroke-linecap="round" stroke-linejoin="round"/>
<path d="M21.5023 27.4023H16.4961" stroke="#B8397E" stroke-width="2"/>
</g>
<defs>
<clipPath id="clip0_1203_2">
<rect width="38" height="43" fill="white"/>
</clipPath>
</defs>
</svg>
