<?xml version="1.0" encoding="UTF-8"?>
<svg width="38px" height="43px" viewBox="0 0 38 43" version="1.1" xmlns="http://www.w3.org/2000/svg" xmlns:xlink="http://www.w3.org/1999/xlink">
    <title>Group 17 Copy</title>
    <g id="Page-1" stroke="none" stroke-width="1" fill="none" fill-rule="evenodd">
        <g id="NFT-Toolkit---1" transform="translate(-561.000000, -439.000000)" stroke-width="2">
            <g id="Group-17-Copy" transform="translate(562.000000, 440.000000)">
                <line x1="12.0265913" y1="15.7206424" x2="18.0000063" y2="26.403725" id="Stroke-7" stroke="#414141" stroke-linecap="round" stroke-linejoin="round"></line>
                <line x1="24.0132705" y1="15.7206424" x2="18.0000252" y2="26.403725" id="Stroke-9" stroke="#414141" stroke-linecap="round" stroke-linejoin="round"></line>
                <line x1="0" y1="15.8585384" x2="17.9999685" y2="26.4036936" id="Stroke-11" stroke="#414141" stroke-linecap="round" stroke-linejoin="round"></line>
                <line x1="35.999956" y1="15.7206424" x2="17.9999874" y2="26.403725" id="Stroke-13" stroke="#414141" stroke-linecap="round" stroke-linejoin="round"></line>
                <polygon id="Stroke-1" stroke="#414141" stroke-linecap="round" stroke-linejoin="round" points="27.7607811 40.4386201 8.23908048 40.4386201 8.23908048 26.4037502 27.7607811 26.4037502"></polygon>
                <path d="M0,15.8585384 C0.574299063,13.7209151 3.05724428,12.1128526 6.03325485,12.1128526 C8.9448951,12.1128526 11.3846122,13.6520143 12.0266165,15.720611 C12.6684949,13.6520143 15.1082749,12.1128526 18.0199152,12.1128526 C20.9316813,12.1128526 23.3713983,13.6520143 24.0132768,15.720611 C24.6552182,13.6520143 27.0949352,12.1128526 30.0065755,12.1128526 C32.9183416,12.1128526 35.3580586,13.6520143 36,15.720611 C36,7.07466349 27.941125,9.43846384e-05 17.9999685,9.43846384e-05 C8.05887504,9.43846384e-05 0,7.21240214 0,15.8585384 Z" id="Stroke-3" stroke="#414141" stroke-linecap="round" stroke-linejoin="round"></path>
                <path d="M12.0265913,15.7206424 C12.0890739,7.35092733 14.7098836,0 18.0199529,0 C21.3299593,0 23.9500768,7.35092733 24.0132516,15.7206424" id="Stroke-5" stroke="#414141" stroke-linecap="round" stroke-linejoin="round"></path>
                <polyline id="Stroke-15" stroke="#3FB549" stroke-linecap="round" stroke-linejoin="round" points="20.5030617 26.403725 20.5030617 33.0855911 18.0199277 31.407621 15.4969005 33.0855911 15.4969005 26.403725"></polyline>
                <line x1="20.5030617" y1="26.4037502" x2="15.4969005" y2="26.4037502" id="Path-2" stroke="#3FB549"></line>
            </g>
        </g>
    </g>
</svg>