<svg width="42" height="43" viewBox="0 0 42 43" fill="none" xmlns="http://www.w3.org/2000/svg">
<g clip-path="url(#clip0_1203_47)">
<path fill-rule="evenodd" clip-rule="evenodd" d="M18.8436 18.6159L7.82358 37.7031C6.86532 39.3628 8.06321 41.4375 9.97972 41.4375H32.0197C33.9362 41.4375 35.134 39.3628 34.1757 37.7031L23.1558 18.6159C22.1976 16.9562 19.8019 16.9562 18.8436 18.6159Z" stroke="#414141" stroke-width="2" stroke-linecap="round" stroke-linejoin="round"/>
<path d="M21.0195 32.6603V25.1914" stroke="#B8397E" stroke-width="2" stroke-linecap="round" stroke-linejoin="round"/>
<path d="M21 36.2266V36.7266" stroke="#B8397E" stroke-width="2" stroke-linecap="round" stroke-linejoin="round"/>
<path d="M21.0195 1.4375V9.81927" stroke="#B8397E" stroke-width="2" stroke-linecap="round" stroke-linejoin="round"/>
<path d="M35.1417 7.29688L29.2148 13.2237" stroke="#B8397E" stroke-width="2" stroke-linecap="round" stroke-linejoin="round"/>
<path d="M6.85742 7.29688L12.7842 13.2237" stroke="#B8397E" stroke-width="2" stroke-linecap="round" stroke-linejoin="round"/>
<path fill-rule="evenodd" clip-rule="evenodd" d="M21 1.4375C9.95426 1.4375 1 10.3918 1 21.4375H1.08297H9.38171C9.38171 15.0209 14.5834 9.81927 21 9.81927C27.4166 9.81927 32.6183 15.0209 32.6183 21.4375H41C41 10.3918 32.0457 1.4375 21 1.4375Z" stroke="#414141" stroke-width="2" stroke-linecap="round" stroke-linejoin="round"/>
</g>
<defs>
<clipPath id="clip0_1203_47">
<rect width="42" height="43" fill="white"/>
</clipPath>
</defs>
</svg>
